<?xml version="1.0" standalone="no"?>
<!DOCTYPE svg PUBLIC "-//W3C//DTD SVG 20010904//EN"
 "http://www.w3.org/TR/2001/REC-SVG-20010904/DTD/svg10.dtd">
<svg version="1.0" xmlns="http://www.w3.org/2000/svg"
 width="792.000000pt" height="253.000000pt" viewBox="0 0 792.000000 253.000000"
 preserveAspectRatio="xMidYMid meet">

<g transform="translate(0.000000,253.000000) scale(0.100000,-0.100000)"
fill="#000000" stroke="none">
<path d="M990 2086 c-309 -66 -550 -292 -632 -594 -28 -102 -30 -306 -5 -401
23 -85 58 -169 98 -239 50 -85 199 -229 289 -279 202 -113 439 -139 657 -72
381 118 626 513 562 909 -51 323 -284 577 -609 667 -77 21 -279 26 -360 9z
m611 -343 c29 -17 59 -67 59 -98 0 -32 -33 -86 -61 -100 -37 -20 -99 -19 -127
1 -28 19 -52 65 -52 99 0 88 103 144 181 98z m-181 -553 l0 -360 -135 0 -135
0 0 225 0 225 -225 0 -225 0 0 135 0 135 360 0 360 0 0 -360z m-310 -260 l0
-300 -115 0 c-170 0 -185 16 -185 191 l0 97 -101 4 c-99 3 -101 3 -130 36 -29
32 -29 34 -29 152 l0 120 280 0 280 0 0 -300z"/>
<path d="M5367 1813 c-4 -3 -7 -240 -7 -525 l0 -518 105 0 105 0 0 41 c0 30 8
51 29 78 15 20 34 47 41 60 l13 25 14 -27 c16 -32 11 -45 -23 -57 -27 -11 -29
-24 -14 -134 5 -46 14 -72 24 -78 11 -6 14 -17 10 -34 -6 -25 -5 -26 39 -29
32 -2 36 16 8 44 -33 33 -51 77 -51 124 0 49 13 67 50 67 35 0 42 -8 28 -33
-9 -18 -6 -25 24 -52 19 -16 44 -46 55 -65 12 -19 31 -41 42 -48 12 -7 21 -21
21 -31 0 -23 13 -33 46 -37 32 -3 22 16 -53 106 -67 80 -79 107 -40 95 133
-42 220 -46 321 -15 36 11 84 35 108 53 115 87 170 258 138 427 -11 58 -4 72
35 68 15 -2 25 -18 37 -58 10 -30 15 -63 12 -73 -3 -10 2 -30 11 -44 12 -18
115 -350 115 -370 0 -2 47 -3 104 -3 l105 0 15 53 c8 28 33 122 56 207 23 85
45 159 48 164 4 7 76 -241 116 -398 6 -26 7 -26 111 -26 l104 0 20 68 c11 37
58 202 106 367 47 165 88 308 91 318 5 15 -4 17 -100 17 -91 0 -105 -2 -110
-17 -2 -10 -28 -117 -56 -238 -29 -121 -54 -222 -56 -224 -1 -2 -6 7 -9 20 -3
13 -29 121 -58 239 l-52 215 -105 0 -104 0 -50 -237 c-28 -131 -53 -234 -57
-230 -3 4 -32 112 -64 240 l-58 233 -94 -2 -94 -2 -35 34 c-37 36 -43 59 -19
79 9 7 30 31 48 54 l32 41 -60 -49 -60 -49 -3 29 -4 28 -18 -24 c-18 -23 -19
-24 -38 -7 -24 22 -32 22 -32 -3 0 -24 -36 -35 -83 -26 -29 6 -30 5 -12 -8 20
-15 20 -15 -1 -16 -24 0 -39 -35 -20 -45 12 -6 -12 -1 -54 11 -23 6 -23 5 -7
-7 16 -13 14 -14 -20 -15 -66 -2 -184 -32 -227 -58 -58 -34 -113 -97 -144
-165 -22 -47 -27 -75 -32 -176 -5 -115 -6 -120 -28 -123 -13 -2 -20 -8 -16
-14 4 -7 2 -8 -4 -4 -8 5 -11 121 -12 393 0 212 -3 390 -6 394 -6 10 -187 12
-197 2z m840 -189 c-3 -3 -12 -4 -19 -1 -8 3 -5 6 6 6 11 1 17 -2 13 -5z m152
-165 c40 -9 67 -34 76 -70 6 -24 3 -27 -27 -32 -23 -4 -36 -1 -43 10 -5 9 -27
38 -49 65 -34 45 -36 49 -15 42 13 -4 39 -11 58 -15z m-399 -99 c11 -7 6 -10
-20 -10 -26 0 -31 3 -20 10 8 5 17 10 20 10 3 0 12 -5 20 -10z m-27 -37 c4 -3
0 -14 -9 -24 -15 -16 -13 -17 28 -12 l43 6 -19 -22 c-18 -20 -115 -81 -130
-81 -13 0 -5 57 14 98 15 32 25 42 43 42 13 0 27 -3 30 -7z m252 -288 c-31
-83 -105 -124 -196 -112 -50 7 -53 10 -40 35 6 12 30 24 58 31 59 15 134 55
165 88 29 31 35 14 13 -42z"/>
<path d="M2150 1285 l0 -515 365 0 365 0 0 95 0 95 -255 0 -255 0 0 420 0 420
-110 0 -110 0 0 -515z"/>
<path d="M3670 1285 l0 -517 303 4 c283 3 305 5 357 26 73 29 119 69 155 133
27 49 30 62 30 149 -1 78 -5 103 -22 136 -21 38 -62 81 -100 102 -13 8 -8 17
30 55 53 53 72 106 64 184 -10 98 -58 172 -142 217 -38 20 -55 21 -357 24
l-318 3 0 -516z m519 334 c27 -5 57 -19 66 -29 22 -25 30 -98 13 -130 -26 -49
-68 -60 -235 -60 l-153 0 0 115 0 115 130 0 c71 0 151 -5 179 -11z m58 -416
c87 -41 81 -178 -10 -233 -28 -18 -51 -20 -194 -20 l-163 0 0 135 0 135 166 0
c134 0 173 -3 201 -17z"/>
<path d="M4570 1285 l0 -515 110 0 110 0 0 220 0 220 225 0 225 0 0 90 0 90
-225 0 -225 0 0 115 0 115 260 0 260 0 0 90 0 90 -370 0 -370 0 0 -515z"/>
<path d="M2920 1262 c0 -307 4 -336 61 -405 89 -108 293 -127 389 -37 18 16
34 30 37 30 3 0 4 -35 1 -79 -5 -89 -25 -133 -78 -168 -78 -53 -202 -2 -216
89 l-7 38 -95 0 -95 0 6 -54 c11 -109 70 -197 159 -237 46 -21 68 -24 168 -24
110 0 118 1 182 33 75 37 110 72 147 152 l26 55 3 443 3 442 -101 0 -100 0 0
-247 c0 -277 -4 -297 -69 -340 -40 -27 -117 -31 -160 -8 -54 27 -61 67 -61
345 l0 250 -100 0 -100 0 0 -278z"/>
<path d="M7424 909 c-23 -24 -29 -39 -29 -75 0 -39 5 -50 33 -75 24 -22 42
-29 72 -29 30 0 48 7 72 29 28 25 33 36 33 76 0 40 -5 51 -33 76 -46 42 -107
41 -148 -2z"/>
</g>
</svg>
